<!DOCTYPE svg PUBLIC "-//W3C//DTD SVG 1.1//EN" "http://www.w3.org/Graphics/SVG/1.1/DTD/svg11.dtd">
<!-- Uploaded to: SVG Repo, www.svgrepo.com, Transformed by: SVG Repo Mixer Tools -->
<svg fill="#9cd491" height="800px" width="800px" version="1.1" id="Layer_1" xmlns="http://www.w3.org/2000/svg" xmlns:xlink="http://www.w3.org/1999/xlink" viewBox="0 0 512 512" xml:space="preserve" stroke="#9cd491">
<g id="SVGRepo_bgCarrier" stroke-width="0"/>
<g id="SVGRepo_tracerCarrier" stroke-linecap="round" stroke-linejoin="round"/>
<g id="SVGRepo_iconCarrier"> <g> <g> <path d="M503.298,296.993c-14.425-72.137-109.424-93-150.891-98.704c85.058-87.474,5.083-193.841,4.225-194.961 c-1.958-2.542-5.2-3.771-8.342-3.183C244.374,19.632,215.699,96.777,207.8,137.173C142.6,46.811,32.95,76.782,31.792,77.128 c-2.325,0.662-4.258,2.279-5.316,4.446c-1.067,2.167-1.158,4.687-0.267,6.929l33.85,84.629 c5.117,24.133,21.95,40.637,37.242,51.029c-58.616,9.067-85.608,41.966-86.9,43.575c-2.8,3.508-2.408,8.592,0.9,11.625 c66.795,61.222,134.391,56.106,175.576,43.741c-59.008,71.843-91.089,172.918-92.618,177.824c-1.408,4.492,1.1,9.275,5.592,10.683 c0.85,0.267,1.708,0.391,2.55,0.391c3.633,0,7-2.333,8.142-5.983c0.4-1.269,37.889-119.333,103.841-188.257 c15.521,116.091,150.095,134.268,151.491,134.441c0.35,0.042,0.708,0.067,1.058,0.067c2.517,0,4.925-1.108,6.558-3.067 c10-12.008,14.317-26.116,12.8-41.925c-2.367-24.825-19-49.641-34.883-68.125c21.908,6.758,47.625,10.95,62.925,0.75 c24.191-16.125,82.358-32.858,82.941-33.025C501.548,305.651,504.173,301.351,503.298,296.993z M404.865,325.701 c-15.642,10.408-60.625-5.267-85.316-17.6c-3.909-1.95-8.617-0.65-10.983,3c-2.358,3.65-1.6,8.483,1.767,11.242 c0.55,0.45,55.049,45.483,58.975,86.549c0.917,9.625-1.083,18.042-6.092,25.583c-23.5-4.367-125.774-29.017-132.841-127.883 c-0.092-1.333-0.492-2.575-1.117-3.658c0.077-0.131,0.131-0.273,0.2-0.408c0.06-0.121,0.121-0.24,0.177-0.362 c0.192-0.429,0.358-0.869,0.477-1.321c0.008-0.025,0.017-0.05,0.023-0.077c0.117-0.46,0.181-0.931,0.219-1.404 c0.013-0.152,0.017-0.304,0.021-0.458c0.008-0.352-0.004-0.704-0.04-1.056c-0.014-0.148-0.019-0.294-0.039-0.44 c-0.069-0.45-0.171-0.896-0.313-1.335c-0.054-0.171-0.131-0.335-0.198-0.504c-0.112-0.287-0.24-0.571-0.385-0.85 c-0.096-0.183-0.194-0.362-0.304-0.538c-0.046-0.075-0.079-0.154-0.129-0.229c-0.094-0.144-0.217-0.254-0.319-0.39 c-0.14-0.185-0.248-0.385-0.406-0.56c-0.067-0.075-0.146-0.125-0.212-0.198c-0.188-0.194-0.388-0.365-0.588-0.54 c-0.233-0.204-0.465-0.408-0.715-0.583c-0.185-0.129-0.379-0.233-0.573-0.346c-0.296-0.175-0.592-0.344-0.904-0.481 c-0.164-0.071-0.333-0.121-0.504-0.181c-0.354-0.129-0.706-0.248-1.073-0.327c-0.154-0.033-0.308-0.048-0.465-0.073 c-0.383-0.06-0.767-0.11-1.156-0.119c-0.16-0.004-0.321,0.01-0.481,0.017c-0.383,0.013-0.76,0.035-1.14,0.1 c-0.181,0.031-0.356,0.086-0.537,0.127c-0.352,0.083-0.698,0.175-1.04,0.304c-0.208,0.079-0.408,0.183-0.615,0.281 c-0.294,0.138-0.583,0.279-0.865,0.454c-0.075,0.046-0.158,0.073-0.233,0.123c-3.867,2.575-93.991,60.533-187.732-18.983 c12.033-11.025,43.458-33.65,98.591-33.65c4.183,0,7.75-3.033,8.425-7.162c0.667-4.129-1.758-8.137-5.725-9.462 c-0.467-0.154-46.591-15.933-54.066-53.312c-0.1-0.508-0.25-1.008-0.442-1.496L45.775,91.461 c28.292-5.196,113.133-12.417,160.041,74.716c1.858,3.442,5.825,5.175,9.592,4.225c3.783-0.95,6.442-4.354,6.458-8.258 c0.017-4.871,1.808-118.008,124.224-144.153c5.933,8.875,19.158,30.837,25.308,58.525c10.575,47.591-4.25,88.545-44.067,121.728 c-2.683,2.242-3.733,5.896-2.642,9.221c1.1,3.325,4.108,5.646,7.608,5.85c1.342,0.079,129.749,8.466,152.333,79.52 C467.198,298.185,425.823,311.735,404.865,325.701z"/> </g> </g> </g>
</svg>